<svg version="1.1" xmlns="http://www.w3.org/2000/svg" xmlns:xlink="http://www.w3.org/1999/xlink" width="48px" height="48px" viewBox="0,0,256,256">
    <g fill="none" fill-rule="nonzero" stroke="none" stroke-width="1" stroke-linecap="butt" stroke-linejoin="miter" stroke-miterlimit="10" stroke-dasharray="" stroke-dashoffset="0" font-family="none" font-weight="none" font-size="none" text-anchor="none" style="mix-blend-mode: normal">
        <g transform="scale(5.33333,5.33333)">
            <path d="M5,38v-24h38v24c0,2.2 -1.8,4 -4,4h-30c-2.2,0 -4,-1.8 -4,-4z" fill="#ffffff"></path>
            <path d="M43,10v6h-38v-6c0,-2.2 1.8,-4 4,-4h30c2.2,0 4,1.8 4,4z" fill="#777777"></path>
            <path d="M33,7c-1.65685,0 -3,1.34315 -3,3c0,1.65685 1.34315,3 3,3c1.65685,0 3,-1.34315 3,-3c0,-1.65685 -1.34315,-3 -3,-3zM15,7c-1.65685,0 -3,1.34315 -3,3c0,1.65685 1.34315,3 3,3c1.65685,0 3,-1.34315 3,-3c0,-1.65685 -1.34315,-3 -3,-3z" fill="#666"></path>
            <path d="M33,3c-1.1,0 -2,0.9 -2,2v5c0,1.1 0.9,2 2,2c1.1,0 2,-0.9 2,-2v-5c0,-1.1 -0.9,-2 -2,-2zM15,3c-1.1,0 -2,0.9 -2,2v5c0,1.1 0.9,2 2,2c1.1,0 2,-0.9 2,-2v-5c0,-1.1 -0.9,-2 -2,-2z" fill="#ffffff"></path>
            <g fill="#aaaaaa">
                <path d="M13,21h6v6h-6zM21,21h6v6h-6zM29,21h6v6h-6zM13,29h6v6h-6zM21,29h6v6h-6z"></path>
            </g>
            <path d="M29,29h6v6h-6z" fill="#777777"></path>
        </g>
    </g>
</svg>