<svg version="1.1" xmlns="http://www.w3.org/2000/svg" xmlns:xlink="http://www.w3.org/1999/xlink" width="24px" height="24px" viewBox="0,0,256,256"><g fill="#ffffff" fill-rule="nonzero" stroke="none" stroke-width="1" stroke-linecap="butt" stroke-linejoin="miter" stroke-miterlimit="10" stroke-dasharray="" stroke-dashoffset="0" font-family="none" font-weight="none" font-size="none" text-anchor="none" style="mix-blend-mode: normal"><g transform="scale(10.66667,10.66667)"><path d="M7,2c-1.103,0 -2,0.897 -2,2v3.02344c0.584,-0.441 1.256,-0.77088 2,-0.92187v-2.10156h7v5h5v11h-3v2h3c1.103,0 2,-0.897 2,-2v-12l-6,-6zM8,8c-1.64501,0 -3,1.35499 -3,3c0,1.64501 1.35499,3 3,3c1.64501,0 3,-1.35499 3,-3c0,-1.64501 -1.35499,-3 -3,-3zM8,10c0.56413,0 1,0.43587 1,1c0,0.56413 -0.43587,1 -1,1c-0.56413,0 -1,-0.43587 -1,-1c0,-0.56413 0.43587,-1 1,-1zM8,16c-1.47645,0 -2.83479,0.23256 -3.91992,0.69922c-0.54257,0.23333 -1.0229,0.52557 -1.4082,0.93164c-0.3853,0.40607 -0.67187,0.96982 -0.67187,1.58594v2.7832h12v-1v-1.7832c0,-0.61612 -0.28658,-1.17987 -0.67187,-1.58594c-0.3853,-0.40607 -0.86563,-0.69831 -1.4082,-0.93164c-1.08514,-0.46666 -2.44347,-0.69922 -3.91992,-0.69922zM8,18c1.25455,0 2.39679,0.22227 3.12891,0.53711c0.36606,0.15742 0.62256,0.33846 0.74805,0.4707c0.12548,0.13225 0.12305,0.1711 0.12305,0.20898v0.7832h-8v-0.7832c0,-0.03788 -0.00244,-0.07674 0.12305,-0.20898c0.12548,-0.13225 0.38199,-0.31328 0.74805,-0.4707c0.73211,-0.31484 1.87435,-0.53711 3.12891,-0.53711z"></path></g></g></svg>